<?xml version="1.0" encoding="UTF-8"?>
<svg xmlns="http://www.w3.org/2000/svg" viewBox="0 0 48 40" width="48" height="40">
  <title>Kiesel</title>
  <defs>
    <radialGradient id="schein" cx="24" cy="20" r="23" gradientUnits="userSpaceOnUse">
      <stop offset="0" stop-color="#FFD86B" stop-opacity="0.8"/>
      <stop offset="0.45" stop-color="#FFD86B" stop-opacity="0.45"/>
      <stop offset="1" stop-color="#FFD86B" stop-opacity="0"/>
    </radialGradient>
  </defs>
  <ellipse cx="24" cy="20" rx="23" ry="19.5" fill="url(#schein)"/>
  <g>
    <path d="M13.2,20.6 C12.9,15.4 18.1,12.1 24.6,12 C31.2,11.9 35.1,15.1 34.9,20.2 C34.7,25.6 30.2,28.1 23.8,28 C17.6,27.9 13.5,25.9 13.2,20.6 Z" fill="#FFD86B"/>
    <path d="M14.6,22.6 C17,27 30.6,28.2 34.2,22.4 C31.2,25.8 19.4,26.6 14.6,22.6 Z" fill="#E8B840" fill-opacity="0.7"/>
    <ellipse cx="20" cy="17.6" rx="2.7" ry="1.6" transform="rotate(-15 20 17.6)" fill="#FFF3C8"/>
    <circle cx="28.4" cy="22" r="0.9" fill="#FFF3C8" fill-opacity="0.8"/>
    <circle cx="25.6" cy="15.6" r="0.6" fill="#FFF3C8" fill-opacity="0.8"/>
    <ellipse cx="22.5" cy="14.6" rx="3.4" ry="1.1" fill="#FFFFFF" fill-opacity="0.6"/>
  </g>
</svg>
