<?xml version="1.0" encoding="UTF-8"?>
<svg xmlns="http://www.w3.org/2000/svg" viewBox="0 0 112 112" width="112" height="112">
  <title>Potato - Koerper</title>
  <!-- Farbe hier aendern: Koerper, Schattenseite, Wangen -->
  <path d="M8.00,107.00 C4.00,75.00 18.00,17.00 56.00,17.00 C94.00,17.00 108.00,75.00 104.00,107.00 C94.00,111.00 18.00,111.00 8.00,107.00 Z" fill="#F2B66D"/>
  <path d="M90.46,39.46 L91.21,40.73 L92.10,42.35 L92.97,44.00 L93.81,45.68 L94.61,47.39 L95.38,49.12 L96.12,50.88 L96.82,52.67 L97.50,54.48 L98.14,56.30 L98.75,58.14 L99.33,60.00 L99.88,61.87 L100.40,63.75 L100.89,65.64 L101.35,67.54 L101.78,69.44 L102.18,71.35 L102.54,73.26 L102.88,75.16 L103.19,77.07 L103.47,78.96 L103.71,80.85 L103.93,82.74 L104.12,84.61 L104.29,86.46 L104.42,88.31 L104.52,90.13 L104.59,91.94 L104.64,93.72 L104.66,95.49 L104.65,97.22 L104.61,98.93 L104.54,100.61 L104.45,102.26 L104.33,103.88 L104.18,105.46 L104.00,107.00 L103.47,107.19 L102.85,107.37 L102.14,107.54 L101.33,107.71 L100.44,107.88 L99.46,108.03 L98.40,108.19 L97.27,108.33 L96.06,108.47 L94.78,108.60 L93.43,108.73 L92.01,108.85 L90.54,108.97 L89.00,109.07 L87.41,109.18 L85.77,109.27 L84.08,109.36 L82.34,109.45 L80.56,109.53 L78.74,109.60 L76.89,109.67 L75.00,109.73 L73.08,109.78 L71.13,109.83 L69.16,109.87 L67.17,109.91 L65.17,109.94 L63.14,109.96 L61.11,109.98 L59.07,109.99 L58.24,110.00 L57.90,109.59 L56.99,108.45 L56.13,107.27 L55.30,106.05 L54.51,104.80 L53.76,103.52 L53.39,102.83 L54.54,102.71 L56.02,102.49 L57.48,102.21 L58.92,101.86 L60.34,101.46 L61.73,101.01 L63.11,100.50 L64.46,99.93 L65.78,99.31 L67.08,98.64 L68.35,97.91 L69.59,97.14 L70.80,96.32 L71.98,95.45 L73.13,94.54 L74.24,93.58 L75.32,92.57 L76.36,91.53 L77.37,90.44 L78.34,89.32 L79.27,88.15 L80.15,86.95 L81.00,85.71 L81.81,84.44 L82.57,83.14 L83.28,81.80 L83.95,80.43 L84.58,79.03 L85.15,77.60 L85.68,76.14 L86.15,74.66 L86.58,73.15 L86.95,71.62 L87.26,70.07 L87.53,68.49 L87.73,66.90 L87.88,65.28 L87.97,63.65 L88.00,62.00 L87.97,60.35 L87.88,58.72 L87.73,57.10 L87.53,55.51 L87.26,53.93 L86.95,52.38 L86.58,50.85 L86.15,49.34 L85.68,47.86 L85.15,46.40 L84.58,44.97 L83.95,43.57 L83.28,42.20 L82.57,40.86 L81.81,39.56 L81.57,39.19 L82.11,39.13 L83.55,39.03 L85.00,39.00 L86.45,39.03 L87.89,39.13 L89.31,39.28 L90.46,39.46 Z" fill="#E59E4D" fill-opacity="0.5"/>
  <ellipse cx="31.5" cy="71.0" rx="6.5" ry="4" fill="#EE9A86" fill-opacity="0.6"/>
  <ellipse cx="83.5" cy="71.0" rx="6.5" ry="4" fill="#EE9A86" fill-opacity="0.6"/>
</svg>
