<svg xmlns="http://www.w3.org/2000/svg" viewBox="0 0 120 90" width="120" height="90">
  <!-- Beine hinten (abgewandte Seite) -->
  <polyline points="69,66 69,76.25 69,85" fill="none" stroke="#5B5868" stroke-width="8.4" stroke-linecap="round" stroke-linejoin="round"/>
  <ellipse cx="70" cy="86.5" rx="5.4" ry="3.5" fill="#5B5868"/>
  <polyline points="69,66 69,76.25 69,85" fill="none" stroke="#121116" stroke-width="6.2" stroke-linecap="round" stroke-linejoin="round"/>
  <ellipse cx="70" cy="86.5" rx="4.3" ry="2.4" fill="#121116"/>
  <!-- Körper: Fellfarbe #1C1B21, Saum #5B5868 -->
  <path d="M34,82 Q42,87 60,86.4 T86,85.5" fill="none" stroke="#5B5868" stroke-width="7.2" stroke-linecap="round" stroke-linejoin="round"/>
  <ellipse cx="48" cy="74.5" rx="18.1" ry="15.5" fill="#5B5868"/>
  <ellipse cx="62" cy="62" rx="13.6" ry="20.1" fill="#5B5868" transform="rotate(-18 62 62)"/>
  <ellipse cx="71" cy="58" rx="11.1" ry="14.1" fill="#5B5868"/>
  <ellipse cx="76" cy="44" rx="9.6" ry="10.6" fill="#5B5868"/>
  <ellipse cx="40" cy="86.2" rx="9.6" ry="3.8" fill="#5B5868"/>
  <ellipse cx="81" cy="35" rx="13.6" ry="13.1" fill="#5B5868"/>
  <ellipse cx="82" cy="39.5" rx="14.6" ry="10.3" fill="#5B5868"/>
  <polygon points="70.5,30 71.5,15.5 79.5,24.5" fill="#5B5868" stroke="#5B5868" stroke-width="3" stroke-linejoin="round"/>
  <polygon points="83,24 91.5,14 93.8,29" fill="#5B5868" stroke="#5B5868" stroke-width="3" stroke-linejoin="round"/>
  <path d="M34,82 Q42,87 60,86.4 T86,85.5" fill="none" stroke="#1C1B21" stroke-width="5" stroke-linecap="round" stroke-linejoin="round"/>
  <ellipse cx="48" cy="74.5" rx="17" ry="14.4" fill="#1C1B21"/>
  <ellipse cx="62" cy="62" rx="12.5" ry="19" fill="#1C1B21" transform="rotate(-18 62 62)"/>
  <ellipse cx="71" cy="58" rx="10" ry="13" fill="#1C1B21"/>
  <ellipse cx="76" cy="44" rx="8.5" ry="9.5" fill="#1C1B21"/>
  <ellipse cx="40" cy="86.2" rx="8.5" ry="2.7" fill="#1C1B21"/>
  <ellipse cx="81" cy="35" rx="12.5" ry="12" fill="#1C1B21"/>
  <ellipse cx="82" cy="39.5" rx="13.5" ry="9.2" fill="#1C1B21"/>
  <polygon points="70.5,30 71.5,15.5 79.5,24.5" fill="#1C1B21" stroke="#1C1B21" stroke-width="0.8" stroke-linejoin="round"/>
  <polygon points="83,24 91.5,14 93.8,29" fill="#1C1B21" stroke="#1C1B21" stroke-width="0.8" stroke-linejoin="round"/>
  <!-- Details -->
  <ellipse cx="47" cy="66" rx="8" ry="2.2" fill="#2B2A33" transform="rotate(-25 47 66)"/>
  <ellipse cx="60" cy="50" rx="3" ry="6" fill="#2B2A33" transform="rotate(-18 60 50)"/>
  <polygon points="72.3,27.5 72.9,19 77.6,24.6" fill="#4B3541"/>
  <polygon points="85,24.6 90.8,17.6 92.3,27" fill="#4B3541"/>
  <ellipse cx="78" cy="27.5" rx="5.5" ry="2" fill="#2B2A33"/>
  <polygon points="82.2,40.2 85,40.2 83.6,42" fill="#B8828F" stroke="#B8828F" stroke-width="0.6" stroke-linejoin="round"/>
  <path d="M83.6,42 q-1.2,1.6 -2.6,1 M83.6,42 q1.2,1.6 2.6,1" fill="none" stroke="#6E6B7C" stroke-width="0.7" stroke-linecap="round"/>
  <line x1="88.5" y1="41" x2="102" y2="38" stroke="#C4C7D0" stroke-opacity="0.5" stroke-width="0.45" stroke-linecap="round"/>
  <line x1="88.5" y1="42" x2="102.5" y2="42" stroke="#C4C7D0" stroke-opacity="0.5" stroke-width="0.45" stroke-linecap="round"/>
  <line x1="88" y1="43" x2="101" y2="46" stroke="#C4C7D0" stroke-opacity="0.5" stroke-width="0.45" stroke-linecap="round"/>
  <line x1="78.5" y1="41" x2="68" y2="38.5" stroke="#C4C7D0" stroke-opacity="0.5" stroke-width="0.45" stroke-linecap="round"/>
  <line x1="78.5" y1="42.2" x2="67.5" y2="42.5" stroke="#C4C7D0" stroke-opacity="0.5" stroke-width="0.45" stroke-linecap="round"/>
  <!-- Vorderbein vorne, mit eigenem Saum -->
  <polyline points="73,64 80,57.25 84,45.5" fill="none" stroke="#5B5868" stroke-width="8.2" stroke-linecap="round" stroke-linejoin="round"/>
  <ellipse cx="85" cy="44.5" rx="5.1" ry="4.1" fill="#5B5868"/>
  <polyline points="73,64 80,57.25 84,45.5" fill="none" stroke="#1C1B21" stroke-width="6" stroke-linecap="round" stroke-linejoin="round"/>
  <ellipse cx="85" cy="44.5" rx="4" ry="3" fill="#1C1B21"/>
</svg>
