<svg xmlns="http://www.w3.org/2000/svg" viewBox="0 0 120 90" width="120" height="90">
  <!-- Beine hinten (abgewandte Seite) -->
  <polyline points="71,60 72.7,72.75 73,84" fill="none" stroke="#5B5868" stroke-width="8.4" stroke-linecap="round" stroke-linejoin="round"/>
  <ellipse cx="74" cy="85.5" rx="5.4" ry="3.5" fill="#5B5868"/>
  <polyline points="45,60 42,75.5 46,84" fill="none" stroke="#5B5868" stroke-width="8.4" stroke-linecap="round" stroke-linejoin="round"/>
  <ellipse cx="47" cy="85.5" rx="5.4" ry="3.5" fill="#5B5868"/>
  <polyline points="71,60 72.7,72.75 73,84" fill="none" stroke="#121116" stroke-width="6.2" stroke-linecap="round" stroke-linejoin="round"/>
  <ellipse cx="74" cy="85.5" rx="4.3" ry="2.4" fill="#121116"/>
  <polyline points="45,60 42,75.5 46,84" fill="none" stroke="#121116" stroke-width="6.2" stroke-linecap="round" stroke-linejoin="round"/>
  <ellipse cx="47" cy="85.5" rx="4.3" ry="2.4" fill="#121116"/>
  <!-- Körper: Fellfarbe #1C1B21, Saum #5B5868 -->
  <path d="M29,52 C19,56 15,67 18,80" fill="none" stroke="#5B5868" stroke-width="7.4" stroke-linecap="round" stroke-linejoin="round"/>
  <ellipse cx="56" cy="56" rx="31.1" ry="13.1" fill="#5B5868"/>
  <ellipse cx="38" cy="57" rx="12.6" ry="12.1" fill="#5B5868"/>
  <ellipse cx="78" cy="54" rx="12.1" ry="12.6" fill="#5B5868"/>
  <ellipse cx="84" cy="45" rx="10.1" ry="11.1" fill="#5B5868"/>
  <ellipse cx="90" cy="36" rx="13.6" ry="13.1" fill="#5B5868"/>
  <ellipse cx="91" cy="40.5" rx="14.6" ry="10.3" fill="#5B5868"/>
  <polygon points="79.5,31 80.5,16.5 88.5,25.5" fill="#5B5868" stroke="#5B5868" stroke-width="3" stroke-linejoin="round"/>
  <polygon points="92,25 100.5,15 102.8,30" fill="#5B5868" stroke="#5B5868" stroke-width="3" stroke-linejoin="round"/>
  <polyline points="40,60 33,76.5 37,85" fill="none" stroke="#5B5868" stroke-width="8.4" stroke-linecap="round" stroke-linejoin="round"/>
  <ellipse cx="38" cy="86.5" rx="5.4" ry="3.5" fill="#5B5868"/>
  <polyline points="76,60 78,73.25 80,85" fill="none" stroke="#5B5868" stroke-width="8.4" stroke-linecap="round" stroke-linejoin="round"/>
  <ellipse cx="81" cy="86.5" rx="5.4" ry="3.5" fill="#5B5868"/>
  <path d="M29,52 C19,56 15,67 18,80" fill="none" stroke="#1C1B21" stroke-width="5.2" stroke-linecap="round" stroke-linejoin="round"/>
  <ellipse cx="56" cy="56" rx="30" ry="12" fill="#1C1B21"/>
  <ellipse cx="38" cy="57" rx="11.5" ry="11" fill="#1C1B21"/>
  <ellipse cx="78" cy="54" rx="11" ry="11.5" fill="#1C1B21"/>
  <ellipse cx="84" cy="45" rx="9" ry="10" fill="#1C1B21"/>
  <ellipse cx="90" cy="36" rx="12.5" ry="12" fill="#1C1B21"/>
  <ellipse cx="91" cy="40.5" rx="13.5" ry="9.2" fill="#1C1B21"/>
  <polygon points="79.5,31 80.5,16.5 88.5,25.5" fill="#1C1B21" stroke="#1C1B21" stroke-width="0.8" stroke-linejoin="round"/>
  <polygon points="92,25 100.5,15 102.8,30" fill="#1C1B21" stroke="#1C1B21" stroke-width="0.8" stroke-linejoin="round"/>
  <polyline points="40,60 33,76.5 37,85" fill="none" stroke="#1C1B21" stroke-width="6.2" stroke-linecap="round" stroke-linejoin="round"/>
  <ellipse cx="38" cy="86.5" rx="4.3" ry="2.4" fill="#1C1B21"/>
  <polyline points="76,60 78,73.25 80,85" fill="none" stroke="#1C1B21" stroke-width="6.2" stroke-linecap="round" stroke-linejoin="round"/>
  <ellipse cx="81" cy="86.5" rx="4.3" ry="2.4" fill="#1C1B21"/>
  <!-- Details -->
  <ellipse cx="55" cy="47.5" rx="14" ry="2.2" fill="#2B2A33"/>
  <polygon points="81.3,28.5 81.9,20 86.6,25.6" fill="#4B3541"/>
  <polygon points="94,25.6 99.8,18.6 101.3,28" fill="#4B3541"/>
  <ellipse cx="87" cy="28.5" rx="5.5" ry="2" fill="#2B2A33"/>
  <polygon points="91.2,41.2 94,41.2 92.6,43" fill="#B8828F" stroke="#B8828F" stroke-width="0.6" stroke-linejoin="round"/>
  <path d="M92.6,43 q-1.2,1.6 -2.6,1 M92.6,43 q1.2,1.6 2.6,1" fill="none" stroke="#6E6B7C" stroke-width="0.7" stroke-linecap="round"/>
  <line x1="97.5" y1="42" x2="111" y2="39" stroke="#C4C7D0" stroke-opacity="0.5" stroke-width="0.45" stroke-linecap="round"/>
  <line x1="97.5" y1="43" x2="111.5" y2="43" stroke="#C4C7D0" stroke-opacity="0.5" stroke-width="0.45" stroke-linecap="round"/>
  <line x1="97" y1="44" x2="110" y2="47" stroke="#C4C7D0" stroke-opacity="0.5" stroke-width="0.45" stroke-linecap="round"/>
  <line x1="87.5" y1="42" x2="77" y2="39.5" stroke="#C4C7D0" stroke-opacity="0.5" stroke-width="0.45" stroke-linecap="round"/>
  <line x1="87.5" y1="43.2" x2="76.5" y2="43.5" stroke="#C4C7D0" stroke-opacity="0.5" stroke-width="0.45" stroke-linecap="round"/>
</svg>
